<svg width="15" height="15" viewBox="0 0 24 24" fill="none" xmlns="http://www.w3.org/2000/svg">
<path d="M3.70588 12.9268H9.11765C10.1979 12.9268 11.0735 13.8024 11.0735 14.8826V20.2944C11.0735 21.3746 10.1979 22.2503 9.11765 22.2503H3.70588C2.62568 22.2503 1.75 21.3746 1.75 20.2944V14.8826C1.75 13.8024 2.62568 12.9268 3.70588 12.9268Z" stroke="currentColor" stroke-width="1.5"></path>
<path d="M23.2498 17.5885C23.2498 20.1631 21.1627 22.2503 18.588 22.2503C16.0134 22.2503 13.9263 20.1631 13.9263 17.5885C13.9263 15.0139 16.0134 12.9268 18.588 12.9268C21.1627 12.9268 23.2498 15.0139 23.2498 17.5885Z" stroke="currentColor" stroke-width="1.5"></path>
<path d="M8.59018 10.0734L8.58914 10.0734C8.25935 10.0738 7.9357 9.98415 7.65316 9.81405C7.37063 9.64394 7.13994 9.39987 6.98603 9.1082C6.83212 8.81653 6.76083 8.48834 6.77988 8.1591C6.79892 7.82986 6.90756 7.51208 7.09407 7.2401L7.09497 7.23878L10.9739 1.55643L10.9739 1.5563C11.1435 1.30781 11.3711 1.10448 11.6371 0.963963C11.9031 0.823448 12.1994 0.75 12.5002 0.75C12.801 0.75 13.0973 0.823448 13.3632 0.963963C13.6291 1.10443 13.8567 1.30766 14.0262 1.55602C14.0262 1.55605 14.0263 1.55608 14.0263 1.55612C14.0263 1.55618 14.0264 1.55624 14.0264 1.5563L17.9047 7.24584C17.9047 7.24595 17.9048 7.24606 17.9049 7.24616C18.0897 7.51803 18.197 7.8351 18.2152 8.16333C18.2334 8.49169 18.1618 8.81881 18.0081 9.10954C17.8543 9.40026 17.6243 9.64361 17.3427 9.81342C17.061 9.98324 16.7385 10.0731 16.4096 10.0734L8.59018 10.0734Z" stroke="currentColor" stroke-width="1.5"></path>
</svg>